# xmcd
#
# Track frame offsets:
#	150
#	13617
#	29162
#	43295
#	58985
#	73580
#	89017
#	100685
#	118792
#	131890
#	147020
#	162905
#	181637
#	194370
#	206802
#	218310
#	233075
#	263312
#
# Disc length: 4440 seconds
#
# Revision: 1
# Processed by: cddbd v1.4PL0 Copyright (c) Steve Scherf et al.
# Submitted via: EasyCDDAExtractor 6.0.0.1
#
DISCID=05115612
DTITLE=Tamra Rosanes - Cowgirl In Love
DYEAR=2003
DGENRE=Country
TTITLE0=Let The Good Times Roll
TTITLE1=It Was Only You
TTITLE2=Cowgirl In Love
TTITLE3=Would You Lay With Me
TTITLE4=Every Little Thing
TTITLE5=I Just Wanna Dance With You
TTITLE6=Rub It In
TTITLE7=A Taste Of You
TTITLE8=Girls Night Out
TTITLE9=The End Of The World
TTITLE10=Hopeless Romantic
TTITLE11=I Bet You Say That To All The Girls
TTITLE12=My Toot Toot
TTITLE13=The Final Call
TTITLE14=Danish Style
TTITLE15=Oh Lonesome Me
TTITLE16=Help Me Make It Through The Night
TTITLE17=Data Track
EXTD=
EXTT0=
EXTT1=
EXTT2=
EXTT3=
EXTT4=
EXTT5=
EXTT6=
EXTT7=
EXTT8=
EXTT9=
EXTT10=
EXTT11=
EXTT12=
EXTT13=
EXTT14=
EXTT15=
EXTT16=
EXTT17=
PLAYORDER=
